<svg xmlns="http://www.w3.org/2000/svg" viewBox="0 0 512 295.8">
  <defs>
    <linearGradient id="hv" x1="0" y1="0" x2="0" y2="1">
      <stop offset="0" stop-color="#e88a3c"/>
      <stop offset="0.45" stop-color="#e25c0f"/>
      <stop offset="1" stop-color="#e55906"/>
    </linearGradient>
  </defs>
  <path fill="#161311" d="M17.3 12.7L218.8 148L225.2 161.2L255.9 128.5L286.6 161.2L293 148L494.5 12.7L361.5 219.7L363.9 228.6L327 283.3L255.9 202.1L184.8 283.3L148 228.6L150.4 219.7Z"/>
  <path fill="url(#hv)" d="M468.2 39.8L436.9 88.4L350 215.5L353.2 218.7L355.9 227L352.7 226.8L326.4 270.8L256.1 190.5L185.8 270.8L159.5 226.8L156.3 227L158.9 218.7L162.1 215.5L75.2 88.4L43.9 39.8L213 153.1L217.5 167.2L217.8 162.9L223.3 174.6L256.1 139.6L288.9 174.6L294.4 162.9L294.7 167.2L299.1 153.1Z"/>
  <g fill="#f4c1b0">
    <path opacity="0.45" d="M468.2 39.7C468.2 39.7 446.6 73.6 439.4 84.6C432.2 95.5 424.9 105.6 424.9 105.6C424.9 105.6 420 102.3 419.5 99C419.1 95.6 421.6 88.4 422 85.3C422.5 82.3 422.2 81.8 422 80.5C421.9 79.2 421.1 77.7 421.1 77.7C421.1 77.7 421.4 76.2 419 77.1C416.6 78 406.6 82.9 406.6 82.9C406.6 82.9 405.8 82 405.8 82C405.8 82 468.2 39.7 468.2 39.7Z"/>
    <path opacity="0.38" d="M364.2 109.8C364.2 109.8 353.7 137.7 350.5 145.5C347.3 153.2 348 151.1 345.2 156.6C342.3 162 337 170.1 333.3 178C329.5 186 325.5 196.8 322.8 204.3C320 211.9 318.2 218.2 316.7 223.4C315.2 228.7 314.4 232.1 313.7 235.8C313 239.5 312.6 242.1 312.6 245.5C312.6 248.9 313.5 256.1 313.5 256.1C313.5 256.1 299 244.3 296.2 236.3C293.3 228.3 294.4 214.2 296.2 208.1C297.9 201.9 303.6 202.3 306.9 199.4C310.2 196.4 313.2 193.4 315.9 190.4C318.6 187.4 320.5 185 323.1 181.3C325.6 177.7 329.1 172.2 331.2 168.5C333.4 164.8 334.6 162.2 335.9 159.2C337.2 156.2 338.1 153.6 339.1 150.5C340 147.4 340.6 145.2 341.6 140.6C342.5 136 340.9 128 344.7 122.9C348.5 117.8 364.2 109.8 364.2 109.8Z"/>
    <path opacity="0.42" d="M196.3 142.2C196.3 142.2 190.2 147.1 187.6 149.5C185 151.8 184.2 152.5 180.6 156.4C177 160.4 169.6 168.8 166 173.2C162.5 177.5 161.2 179.5 159.5 182.4C157.8 185.3 155.9 190.6 155.9 190.6C155.9 190.6 138.6 167.5 138.6 167.5C138.6 167.5 145.5 164.7 150 162.4C154.4 160.2 160.7 156.7 165.3 153.8C170 150.9 174.2 147.9 178 145.1C181.8 142.2 188 136.8 188 136.8C188 136.8 196.3 142.2 196.3 142.2Z"/>
  </g>
</svg>
