<svg xmlns="http://www.w3.org/2000/svg" viewBox="0 0 440 100">
  <path fill="#ecebe6" d="M11.5 18.0L40.0 0.0L26.0 100.0L0.0 100.0ZM60.0 0.0L86.0 0.0L74.5 82.0L46.0 100.0ZM28.7 38.0L60.7 38.0L57.5 61.0L25.5 61.0ZM138.0 0.0L133.8 30.0L111.0 100.0L85.0 100.0ZM138.0 0.0L163.0 100.0L137.0 100.0L133.8 30.0ZM110.3 62.0L148.3 62.0L145.2 84.0L107.2 84.0ZM364.0 0.0L390.0 0.0L376.0 100.0L350.0 100.0ZM411.5 18.0L440.0 0.0L426.0 100.0L400.0 100.0ZM364.0 0.0L390.0 0.0L426.0 100.0L400.0 100.0Z"/>
  <path fill="#e25117" d="M190.0 0.0L218.0 0.0L218.9 72.0L215.0 100.0ZM268.0 0.0L240.0 0.0L218.9 72.0L215.0 100.0ZM273.0 0.0L301.0 0.0L301.9 72.0L298.0 100.0ZM351.0 0.0L323.0 0.0L301.9 72.0L298.0 100.0Z"/>
</svg>
